<?xml version="1.0" encoding="UTF-8" standalone="no"?>
<!DOCTYPE svg PUBLIC "-//W3C//DTD SVG 1.1//EN"
 "http://www.w3.org/Graphics/SVG/1.1/DTD/svg11.dtd">
<!-- Generated by graphviz version 2.40.1 (20161225.0304)
 -->
<!-- Title: dependencies Pages: 1 -->
<svg width="3529pt" height="284pt"
 viewBox="0.00 0.00 3529.00 284.00" xmlns="http://www.w3.org/2000/svg" xmlns:xlink="http://www.w3.org/1999/xlink">
<g id="graph0" class="graph" transform="scale(1 1) rotate(0) translate(4 280)">
<title>dependencies</title>
<polygon fill="#ffffff" stroke="transparent" points="-4,4 -4,-280 3525,-280 3525,4 -4,4"/>
<text text-anchor="start" x="1739.5091" y="-42.4" font-family="sans-serif" font-weight="bold" font-size="14.00" fill="#000000">Legend</text>
<polygon fill="#ffffb3" stroke="transparent" points="1526.5,-10 1526.5,-30 1546.5,-30 1546.5,-10 1526.5,-10"/>
<text text-anchor="start" x="1550.129" y="-15.4" font-family="sans-serif" font-size="14.00" fill="#000000"> &#160;Declarations</text>
<polygon fill="#8dd3c7" stroke="transparent" points="1639.5,-10 1639.5,-30 1659.5,-30 1659.5,-10 1639.5,-10"/>
<text text-anchor="start" x="1663.2251" y="-15.4" font-family="sans-serif" font-size="14.00" fill="#000000"> &#160;Module</text>
<polygon fill="#80b1d3" stroke="transparent" points="1725.5,-10 1725.5,-30 1745.5,-30 1745.5,-10 1725.5,-10"/>
<text text-anchor="start" x="1749.2812" y="-15.4" font-family="sans-serif" font-size="14.00" fill="#000000"> &#160;Bootstrap</text>
<polygon fill="#fdb462" stroke="transparent" points="1822.5,-10 1822.5,-30 1842.5,-30 1842.5,-10 1822.5,-10"/>
<text text-anchor="start" x="1846.1732" y="-15.4" font-family="sans-serif" font-size="14.00" fill="#000000"> &#160;Providers</text>
<polygon fill="#fb8072" stroke="transparent" points="1918.5,-10 1918.5,-30 1938.5,-30 1938.5,-10 1918.5,-10"/>
<text text-anchor="start" x="1942.2258" y="-15.4" font-family="sans-serif" font-size="14.00" fill="#000000"> &#160;Exports</text>
<g id="clust1" class="cluster">
<title>cluster_AppModule</title>
<polygon fill="none" stroke="#000000" stroke-dasharray="1,5" points="8,-70 8,-268 3513,-268 3513,-70 8,-70"/>
</g>
<g id="clust2" class="cluster">
<title>cluster_AppModule_declarations</title>
<polygon fill="none" stroke="#000000" points="1569,-78 1569,-130 3505,-130 3505,-78 1569,-78"/>
</g>
<g id="clust16" class="cluster">
<title>cluster_AppModule_imports</title>
<polygon fill="none" stroke="#000000" points="1445,-78 1445,-130 1561,-130 1561,-78 1445,-78"/>
</g>
<g id="clust18" class="cluster">
<title>cluster_AppModule_bootstrap</title>
<polygon fill="none" stroke="#000000" points="1785,-208 1785,-260 1909,-260 1909,-208 1785,-208"/>
</g>
<g id="clust19" class="cluster">
<title>cluster_AppModule_providers</title>
<polygon fill="none" stroke="#000000" points="16,-78 16,-130 1437,-130 1437,-78 16,-78"/>
</g>
<!-- AppComponent -->
<g id="node1" class="node">
<title>AppComponent</title>
<polygon fill="#ffffb3" stroke="#000000" points="3496.9399,-122 3391.0601,-122 3391.0601,-86 3496.9399,-86 3496.9399,-122"/>
<text text-anchor="middle" x="3444" y="-99.8" font-family="Times,serif" font-size="14.00" fill="#000000">AppComponent</text>
</g>
<!-- AppModule -->
<g id="node14" class="node">
<title>AppModule</title>
<polygon fill="#8dd3c7" stroke="#000000" points="1888.6571,-187 1885.6571,-191 1864.6571,-191 1861.6571,-187 1805.3429,-187 1805.3429,-151 1888.6571,-151 1888.6571,-187"/>
<text text-anchor="middle" x="1847" y="-164.8" font-family="Times,serif" font-size="14.00" fill="#000000">AppModule</text>
</g>
<!-- AppComponent&#45;&gt;AppModule -->
<g id="edge1" class="edge">
<title>AppComponent&#45;&gt;AppModule</title>
<path fill="none" stroke="#000000" d="M3444,-122.1532C3444,-145.7566 3444,-184 3444,-184 3444,-184 1898.895,-184 1898.895,-184"/>
<polygon fill="#000000" stroke="#000000" points="1898.895,-180.5001 1888.895,-184 1898.895,-187.5001 1898.895,-180.5001"/>
</g>
<!-- HomeComponent -->
<g id="node2" class="node">
<title>HomeComponent</title>
<polygon fill="#ffffb3" stroke="#000000" points="3373.5451,-122 3258.4549,-122 3258.4549,-86 3373.5451,-86 3373.5451,-122"/>
<text text-anchor="middle" x="3316" y="-99.8" font-family="Times,serif" font-size="14.00" fill="#000000">HomeComponent</text>
</g>
<!-- HomeComponent&#45;&gt;AppModule -->
<g id="edge2" class="edge">
<title>HomeComponent&#45;&gt;AppModule</title>
<path fill="none" stroke="#000000" d="M3316,-122.2479C3316,-145.0179 3316,-181 3316,-181 3316,-181 1898.9882,-181 1898.9882,-181"/>
<polygon fill="#000000" stroke="#000000" points="1898.9882,-177.5001 1888.9882,-181 1898.9882,-184.5001 1898.9882,-177.5001"/>
</g>
<!-- RegisterComponent -->
<g id="node3" class="node">
<title>RegisterComponent</title>
<polygon fill="#ffffb3" stroke="#000000" points="3239.9846,-122 3112.0154,-122 3112.0154,-86 3239.9846,-86 3239.9846,-122"/>
<text text-anchor="middle" x="3176" y="-99.8" font-family="Times,serif" font-size="14.00" fill="#000000">RegisterComponent</text>
</g>
<!-- RegisterComponent&#45;&gt;AppModule -->
<g id="edge3" class="edge">
<title>RegisterComponent&#45;&gt;AppModule</title>
<path fill="none" stroke="#000000" d="M3176,-122.2921C3176,-144.2057 3176,-178 3176,-178 3176,-178 1898.9693,-178 1898.9693,-178"/>
<polygon fill="#000000" stroke="#000000" points="1898.9694,-174.5001 1888.9693,-178 1898.9693,-181.5001 1898.9694,-174.5001"/>
</g>
<!-- NavbarComponent -->
<g id="node4" class="node">
<title>NavbarComponent</title>
<polygon fill="#ffffb3" stroke="#000000" points="3094.0297,-122 2971.9703,-122 2971.9703,-86 3094.0297,-86 3094.0297,-122"/>
<text text-anchor="middle" x="3033" y="-99.8" font-family="Times,serif" font-size="14.00" fill="#000000">NavbarComponent</text>
</g>
<!-- NavbarComponent&#45;&gt;AppModule -->
<g id="edge4" class="edge">
<title>NavbarComponent&#45;&gt;AppModule</title>
<path fill="none" stroke="#000000" d="M3033,-122.2843C3033,-143.3211 3033,-175 3033,-175 3033,-175 1898.862,-175 1898.862,-175"/>
<polygon fill="#000000" stroke="#000000" points="1898.862,-171.5001 1888.862,-175 1898.862,-178.5001 1898.862,-171.5001"/>
</g>
<!-- PhotoListComponent -->
<g id="node5" class="node">
<title>PhotoListComponent</title>
<polygon fill="#ffffb3" stroke="#000000" points="2953.7842,-122 2818.2158,-122 2818.2158,-86 2953.7842,-86 2953.7842,-122"/>
<text text-anchor="middle" x="2886" y="-99.8" font-family="Times,serif" font-size="14.00" fill="#000000">PhotoListComponent</text>
</g>
<!-- PhotoListComponent&#45;&gt;AppModule -->
<g id="edge5" class="edge">
<title>PhotoListComponent&#45;&gt;AppModule</title>
<path fill="none" stroke="#000000" d="M2886,-122.2228C2886,-142.3652 2886,-172 2886,-172 2886,-172 1898.6935,-172 1898.6935,-172"/>
<polygon fill="#000000" stroke="#000000" points="1898.6935,-168.5001 1888.6935,-172 1898.6934,-175.5001 1898.6935,-168.5001"/>
</g>
<!-- SidePanelComponent -->
<g id="node6" class="node">
<title>SidePanelComponent</title>
<polygon fill="#ffffb3" stroke="#000000" points="2799.823,-122 2662.177,-122 2662.177,-86 2799.823,-86 2799.823,-122"/>
<text text-anchor="middle" x="2731" y="-99.8" font-family="Times,serif" font-size="14.00" fill="#000000">SidePanelComponent</text>
</g>
<!-- SidePanelComponent&#45;&gt;AppModule -->
<g id="edge6" class="edge">
<title>SidePanelComponent&#45;&gt;AppModule</title>
<path fill="none" stroke="#000000" d="M2731,-122.1061C2731,-141.3391 2731,-169 2731,-169 2731,-169 1898.7465,-169 1898.7465,-169"/>
<polygon fill="#000000" stroke="#000000" points="1898.7465,-165.5001 1888.7465,-169 1898.7465,-172.5001 1898.7465,-165.5001"/>
</g>
<!-- LoginComponent -->
<g id="node7" class="node">
<title>LoginComponent</title>
<polygon fill="#ffffb3" stroke="#000000" points="2644.2758,-122 2529.7242,-122 2529.7242,-86 2644.2758,-86 2644.2758,-122"/>
<text text-anchor="middle" x="2587" y="-99.8" font-family="Times,serif" font-size="14.00" fill="#000000">LoginComponent</text>
</g>
<!-- LoginComponent&#45;&gt;AppModule -->
<g id="edge7" class="edge">
<title>LoginComponent&#45;&gt;AppModule</title>
<path fill="none" stroke="#000000" d="M2587,-122.2667C2587,-140.5552 2587,-166 2587,-166 2587,-166 1898.9059,-166 1898.9059,-166"/>
<polygon fill="#000000" stroke="#000000" points="1898.9059,-162.5001 1888.9059,-166 1898.9058,-169.5001 1898.9059,-162.5001"/>
</g>
<!-- NotFoundComponent -->
<g id="node8" class="node">
<title>NotFoundComponent</title>
<polygon fill="#ffffb3" stroke="#000000" points="2512.1122,-122 2373.8878,-122 2373.8878,-86 2512.1122,-86 2512.1122,-122"/>
<text text-anchor="middle" x="2443" y="-99.8" font-family="Times,serif" font-size="14.00" fill="#000000">NotFoundComponent</text>
</g>
<!-- NotFoundComponent&#45;&gt;AppModule -->
<g id="edge8" class="edge">
<title>NotFoundComponent&#45;&gt;AppModule</title>
<path fill="none" stroke="#000000" d="M2443,-122.0225C2443,-139.3734 2443,-163 2443,-163 2443,-163 1898.9096,-163 1898.9096,-163"/>
<polygon fill="#000000" stroke="#000000" points="1898.9096,-159.5001 1888.9096,-163 1898.9095,-166.5001 1898.9096,-159.5001"/>
</g>
<!-- AlbumComponent -->
<g id="node9" class="node">
<title>AlbumComponent</title>
<polygon fill="#ffffb3" stroke="#000000" points="2356.2204,-122 2235.7796,-122 2235.7796,-86 2356.2204,-86 2356.2204,-122"/>
<text text-anchor="middle" x="2296" y="-99.8" font-family="Times,serif" font-size="14.00" fill="#000000">AlbumComponent</text>
</g>
<!-- AlbumComponent&#45;&gt;AppModule -->
<g id="edge9" class="edge">
<title>AlbumComponent&#45;&gt;AppModule</title>
<path fill="none" stroke="#000000" d="M2296,-122.027C2296,-138.3976 2296,-160 2296,-160 2296,-160 1898.8376,-160 1898.8376,-160"/>
<polygon fill="#000000" stroke="#000000" points="1898.8377,-156.5001 1888.8376,-160 1898.8376,-163.5001 1898.8377,-156.5001"/>
</g>
<!-- AddPhotoComponent -->
<g id="node10" class="node">
<title>AddPhotoComponent</title>
<polygon fill="#ffffb3" stroke="#000000" points="2218.1122,-122 2079.8878,-122 2079.8878,-86 2218.1122,-86 2218.1122,-122"/>
<text text-anchor="middle" x="2149" y="-99.8" font-family="Times,serif" font-size="14.00" fill="#000000">AddPhotoComponent</text>
</g>
<!-- AddPhotoComponent&#45;&gt;AppModule -->
<g id="edge10" class="edge">
<title>AddPhotoComponent&#45;&gt;AppModule</title>
<path fill="none" stroke="#000000" d="M2149,-122.2396C2149,-137.5706 2149,-157 2149,-157 2149,-157 1898.6747,-157 1898.6747,-157"/>
<polygon fill="#000000" stroke="#000000" points="1898.6748,-153.5001 1888.6747,-157 1898.6747,-160.5001 1898.6748,-153.5001"/>
</g>
<!-- HighlightDirective -->
<g id="node11" class="node">
<title>HighlightDirective</title>
<polygon fill="#ffffb3" stroke="#000000" points="2061.7521,-122 1940.2479,-122 1940.2479,-86 2061.7521,-86 2061.7521,-122"/>
<text text-anchor="middle" x="2001" y="-99.8" font-family="Times,serif" font-size="14.00" fill="#000000">HighlightDirective</text>
</g>
<!-- HighlightDirective&#45;&gt;AppModule -->
<g id="edge11" class="edge">
<title>HighlightDirective&#45;&gt;AppModule</title>
<path fill="none" stroke="#000000" d="M2001,-122.0511C2001,-136.373 2001,-154 2001,-154 2001,-154 1898.6746,-154 1898.6746,-154"/>
<polygon fill="#000000" stroke="#000000" points="1898.6747,-150.5001 1888.6746,-154 1898.6746,-157.5001 1898.6747,-150.5001"/>
</g>
<!-- ImageDetailComponent -->
<g id="node12" class="node">
<title>ImageDetailComponent</title>
<polygon fill="#ffffb3" stroke="#000000" points="1922.0212,-122 1771.9788,-122 1771.9788,-86 1922.0212,-86 1922.0212,-122"/>
<text text-anchor="middle" x="1847" y="-99.8" font-family="Times,serif" font-size="14.00" fill="#000000">ImageDetailComponent</text>
</g>
<!-- ImageDetailComponent&#45;&gt;AppModule -->
<g id="edge12" class="edge">
<title>ImageDetailComponent&#45;&gt;AppModule</title>
<path fill="none" stroke="#000000" d="M1847,-122.1061C1847,-122.1061 1847,-140.991 1847,-140.991"/>
<polygon fill="#000000" stroke="#000000" points="1843.5001,-140.9909 1847,-150.991 1850.5001,-140.991 1843.5001,-140.9909"/>
</g>
<!-- ImageCommentsComponent -->
<g id="node13" class="node">
<title>ImageCommentsComponent</title>
<polygon fill="#ffffb3" stroke="#000000" points="1753.4804,-122 1576.5196,-122 1576.5196,-86 1753.4804,-86 1753.4804,-122"/>
<text text-anchor="middle" x="1665" y="-99.8" font-family="Times,serif" font-size="14.00" fill="#000000">ImageCommentsComponent</text>
</g>
<!-- ImageCommentsComponent&#45;&gt;AppModule -->
<g id="edge13" class="edge">
<title>ImageCommentsComponent&#45;&gt;AppModule</title>
<path fill="none" stroke="#000000" d="M1665,-122.0511C1665,-136.373 1665,-154 1665,-154 1665,-154 1795.2455,-154 1795.2455,-154"/>
<polygon fill="#000000" stroke="#000000" points="1795.2456,-157.5001 1805.2455,-154 1795.2455,-150.5001 1795.2456,-157.5001"/>
</g>
<!-- AppComponent  -->
<g id="node16" class="node">
<title>AppComponent </title>
<polygon fill="#80b1d3" stroke="#000000" points="1901.439,-252 1792.561,-252 1792.561,-216 1901.439,-216 1901.439,-252"/>
<text text-anchor="middle" x="1847" y="-229.8" font-family="Times,serif" font-size="14.00" fill="#000000">AppComponent </text>
</g>
<!-- AppModule&#45;&gt;AppComponent  -->
<g id="edge15" class="edge">
<title>AppModule&#45;&gt;AppComponent </title>
<path fill="none" stroke="#000000" stroke-dasharray="1,5" d="M1847,-187.1061C1847,-187.1061 1847,-205.991 1847,-205.991"/>
<polygon fill="#000000" stroke="#000000" points="1843.5001,-205.9909 1847,-215.991 1850.5001,-205.991 1843.5001,-205.9909"/>
</g>
<!-- AdminRouting -->
<g id="node15" class="node">
<title>AdminRouting</title>
<polygon fill="#8dd3c7" stroke="#000000" points="1553.0056,-122 1550.0056,-126 1529.0056,-126 1526.0056,-122 1452.9944,-122 1452.9944,-86 1553.0056,-86 1553.0056,-122"/>
<text text-anchor="middle" x="1503" y="-99.8" font-family="Times,serif" font-size="14.00" fill="#000000">AdminRouting</text>
</g>
<!-- AdminRouting&#45;&gt;AppModule -->
<g id="edge14" class="edge">
<title>AdminRouting&#45;&gt;AppModule</title>
<path fill="none" stroke="#000000" d="M1503,-122.2396C1503,-137.5706 1503,-157 1503,-157 1503,-157 1795.1628,-157 1795.1628,-157"/>
<polygon fill="#000000" stroke="#000000" points="1795.1628,-160.5001 1805.1628,-157 1795.1627,-153.5001 1795.1628,-160.5001"/>
</g>
<!-- RegisterService -->
<g id="node17" class="node">
<title>RegisterService</title>
<ellipse fill="#fdb462" stroke="#000000" cx="1357" cy="-104" rx="72.3439" ry="18"/>
<text text-anchor="middle" x="1357" y="-99.8" font-family="Times,serif" font-size="14.00" fill="#000000">RegisterService</text>
</g>
<!-- RegisterService&#45;&gt;AppModule -->
<g id="edge16" class="edge">
<title>RegisterService&#45;&gt;AppModule</title>
<path fill="none" stroke="#000000" d="M1357,-122.027C1357,-138.3976 1357,-160 1357,-160 1357,-160 1795.2229,-160 1795.2229,-160"/>
<polygon fill="#000000" stroke="#000000" points="1795.2229,-163.5001 1805.2229,-160 1795.2228,-156.5001 1795.2229,-163.5001"/>
</g>
<!-- PhotoService -->
<g id="node18" class="node">
<title>PhotoService</title>
<ellipse fill="#fdb462" stroke="#000000" cx="1204" cy="-104" rx="62.5585" ry="18"/>
<text text-anchor="middle" x="1204" y="-99.8" font-family="Times,serif" font-size="14.00" fill="#000000">PhotoService</text>
</g>
<!-- PhotoService&#45;&gt;AppModule -->
<g id="edge17" class="edge">
<title>PhotoService&#45;&gt;AppModule</title>
<path fill="none" stroke="#000000" d="M1204,-122.0225C1204,-139.3734 1204,-163 1204,-163 1204,-163 1795.3064,-163 1795.3064,-163"/>
<polygon fill="#000000" stroke="#000000" points="1795.3064,-166.5001 1805.3064,-163 1795.3064,-159.5001 1795.3064,-166.5001"/>
</g>
<!-- LoginService -->
<g id="node19" class="node">
<title>LoginService</title>
<ellipse fill="#fdb462" stroke="#000000" cx="1060" cy="-104" rx="63.1209" ry="18"/>
<text text-anchor="middle" x="1060" y="-99.8" font-family="Times,serif" font-size="14.00" fill="#000000">LoginService</text>
</g>
<!-- LoginService&#45;&gt;AppModule -->
<g id="edge18" class="edge">
<title>LoginService&#45;&gt;AppModule</title>
<path fill="none" stroke="#000000" d="M1060,-122.2667C1060,-140.5552 1060,-166 1060,-166 1060,-166 1795.2431,-166 1795.2431,-166"/>
<polygon fill="#000000" stroke="#000000" points="1795.2432,-169.5001 1805.2431,-166 1795.2431,-162.5001 1795.2432,-169.5001"/>
</g>
<!-- HttpClientService -->
<g id="node20" class="node">
<title>HttpClientService</title>
<ellipse fill="#fdb462" stroke="#000000" cx="898" cy="-104" rx="80.5316" ry="18"/>
<text text-anchor="middle" x="898" y="-99.8" font-family="Times,serif" font-size="14.00" fill="#000000">HttpClientService</text>
</g>
<!-- HttpClientService&#45;&gt;AppModule -->
<g id="edge19" class="edge">
<title>HttpClientService&#45;&gt;AppModule</title>
<path fill="none" stroke="#000000" d="M898,-122.1061C898,-141.3391 898,-169 898,-169 898,-169 1795.3058,-169 1795.3058,-169"/>
<polygon fill="#000000" stroke="#000000" points="1795.3058,-172.5001 1805.3058,-169 1795.3058,-165.5001 1795.3058,-172.5001"/>
</g>
<!-- AuthService -->
<g id="node21" class="node">
<title>AuthService</title>
<ellipse fill="#fdb462" stroke="#000000" cx="740" cy="-104" rx="59.1083" ry="18"/>
<text text-anchor="middle" x="740" y="-99.8" font-family="Times,serif" font-size="14.00" fill="#000000">AuthService</text>
</g>
<!-- AuthService&#45;&gt;AppModule -->
<g id="edge20" class="edge">
<title>AuthService&#45;&gt;AppModule</title>
<path fill="none" stroke="#000000" d="M740,-122.2228C740,-142.3652 740,-172 740,-172 740,-172 1795.291,-172 1795.291,-172"/>
<polygon fill="#000000" stroke="#000000" points="1795.291,-175.5001 1805.291,-172 1795.2909,-168.5001 1795.291,-175.5001"/>
</g>
<!-- UserService -->
<g id="node22" class="node">
<title>UserService</title>
<ellipse fill="#fdb462" stroke="#000000" cx="604" cy="-104" rx="58.4415" ry="18"/>
<text text-anchor="middle" x="604" y="-99.8" font-family="Times,serif" font-size="14.00" fill="#000000">UserService</text>
</g>
<!-- UserService&#45;&gt;AppModule -->
<g id="edge21" class="edge">
<title>UserService&#45;&gt;AppModule</title>
<path fill="none" stroke="#000000" d="M604,-122.2843C604,-143.3211 604,-175 604,-175 604,-175 1795.2877,-175 1795.2877,-175"/>
<polygon fill="#000000" stroke="#000000" points="1795.2878,-178.5001 1805.2877,-175 1795.2877,-171.5001 1795.2878,-178.5001"/>
</g>
<!-- AddPhotoService -->
<g id="node23" class="node">
<title>AddPhotoService</title>
<ellipse fill="#fdb462" stroke="#000000" cx="449" cy="-104" rx="79.3154" ry="18"/>
<text text-anchor="middle" x="449" y="-99.8" font-family="Times,serif" font-size="14.00" fill="#000000">AddPhotoService</text>
</g>
<!-- AddPhotoService&#45;&gt;AppModule -->
<g id="edge22" class="edge">
<title>AddPhotoService&#45;&gt;AppModule</title>
<path fill="none" stroke="#000000" d="M449,-122.2921C449,-144.2057 449,-178 449,-178 449,-178 1795.1606,-178 1795.1606,-178"/>
<polygon fill="#000000" stroke="#000000" points="1795.1607,-181.5001 1805.1606,-178 1795.1606,-174.5001 1795.1607,-181.5001"/>
</g>
<!-- PhotoActions -->
<g id="node24" class="node">
<title>PhotoActions</title>
<ellipse fill="#fdb462" stroke="#000000" cx="288" cy="-104" rx="63.7238" ry="18"/>
<text text-anchor="middle" x="288" y="-99.8" font-family="Times,serif" font-size="14.00" fill="#000000">PhotoActions</text>
</g>
<!-- PhotoActions&#45;&gt;AppModule -->
<g id="edge23" class="edge">
<title>PhotoActions&#45;&gt;AppModule</title>
<path fill="none" stroke="#000000" d="M288,-122.2479C288,-145.0179 288,-181 288,-181 288,-181 1795.3005,-181 1795.3005,-181"/>
<polygon fill="#000000" stroke="#000000" points="1795.3006,-184.5001 1805.3005,-181 1795.3005,-177.5001 1795.3006,-184.5001"/>
</g>
<!-- UploadPhotoService -->
<g id="node25" class="node">
<title>UploadPhotoService</title>
<ellipse fill="#fdb462" stroke="#000000" cx="115" cy="-104" rx="90.9129" ry="18"/>
<text text-anchor="middle" x="115" y="-99.8" font-family="Times,serif" font-size="14.00" fill="#000000">UploadPhotoService</text>
</g>
<!-- UploadPhotoService&#45;&gt;AppModule -->
<g id="edge24" class="edge">
<title>UploadPhotoService&#45;&gt;AppModule</title>
<path fill="none" stroke="#000000" d="M115,-122.1532C115,-145.7566 115,-184 115,-184 115,-184 1795.0445,-184 1795.0445,-184"/>
<polygon fill="#000000" stroke="#000000" points="1795.0445,-187.5001 1805.0445,-184 1795.0444,-180.5001 1795.0445,-187.5001"/>
</g>
</g>
</svg>
